# Blender v2.79 (sub 0) OBJ File: ''
# www.blender.org
mtllib SpaceshipPlatform.mtl
o Cylinder.001
v 0.000000 -0.133323 -1.000000
v 0.000000 0.133323 -1.000000
v 0.866025 -0.133323 -0.500000
v 0.866025 0.133323 -0.500000
v 0.866025 -0.133323 0.500000
v 0.866025 0.133323 0.500000
v -0.000000 -0.133323 1.000000
v -0.000000 0.133323 1.000000
v -0.866025 -0.133323 0.500000
v -0.866025 0.133323 0.500000
v -0.866025 -0.133323 -0.500000
v -0.866025 0.133323 -0.500000
v -0.265268 -0.112383 1.459458
v -0.265268 -0.133323 1.459458
v -1.131294 -0.133323 0.959458
v -1.131294 -0.112383 0.959458
vt 0.740908 0.628942
vt 0.809692 0.628942
vt 0.809692 0.909969
vt 0.740908 0.909969
vt 0.739972 0.628132
vt 0.807173 0.628132
vt 0.809498 0.911722
vt 0.739972 0.911722
vt 0.741166 0.628834
vt 0.809153 0.628834
vt 0.809153 0.915285
vt 0.741166 0.915285
vt 0.739763 0.368654
vt 0.885686 0.368654
vt 0.885686 0.525650
vt 0.739763 0.525650
vt 0.440941 1.000000
vt 0.726892 0.846998
vt 0.726892 0.157924
vt 0.440941 0.000000
vt 0.007928 0.250000
vt 0.007928 0.750000
vt 0.744811 0.630029
vt 0.809162 0.630029
vt 0.809162 0.910523
vt 0.744811 0.910523
vt 0.743068 0.631389
vt 0.808938 0.631389
vt 0.808938 0.911962
vt 0.743068 0.911962
vt 0.503100 0.477803
vt 0.679883 0.375737
vt 0.679883 0.171606
vt 0.503100 0.069540
vt 0.326317 0.171606
vt 0.326317 0.375737
vt 0.000000 0.000000
vt 1.000000 0.000000
vt 1.000000 1.000000
vt 0.000000 1.000000
vt 0.738564 0.216560
vt 0.883778 0.216560
vt 0.883778 0.524860
vt 0.738564 0.524860
vt 0.739367 0.195073
vt 0.881017 0.195073
vt 0.881017 0.526175
vt 0.739367 0.526175
vt 0.740879 0.006086
vt 0.880750 0.006086
vt 0.880750 0.530405
vt 0.740879 0.530405
vn 0.5000 0.0000 -0.8660
vn 1.0000 0.0000 0.0000
vn 0.5000 0.0000 0.8660
vn 0.0000 -1.0000 0.0000
vn 0.0000 1.0000 0.0000
vn -1.0000 0.0000 0.0000
vn -0.5000 0.0000 -0.8660
vn -0.5000 0.0000 0.8660
vn -0.2101 0.9074 0.3639
vn 0.8660 0.0000 0.5000
vn -0.8660 0.0000 -0.5000
usemtl None
s off
f 1/1/1 2/2/1 4/3/1 3/4/1
f 3/5/2 4/6/2 6/7/2 5/8/2
f 5/9/3 6/10/3 8/11/3 7/12/3
f 9/13/4 7/14/4 14/15/4 15/16/4
f 4/17/5 2/18/5 12/19/5 10/20/5 8/21/5 6/22/5
f 9/23/6 10/24/6 12/25/6 11/26/6
f 11/27/7 12/28/7 2/29/7 1/30/7
f 1/31/4 3/32/4 5/33/4 7/34/4 9/35/4 11/36/4
f 14/37/8 13/38/8 16/39/8 15/40/8
f 8/41/9 10/42/9 16/43/9 13/44/9
f 7/45/10 8/46/10 13/47/10 14/48/10
f 10/49/11 9/50/11 15/51/11 16/52/11
