# This file uses centimeters as units for non-parametric coordinates.

mtllib tapabocas_este_v2.mtl
g default
v -11.106160 6.906213 4.550517
v -10.486620 6.802722 4.480418
v -9.875877 6.900876 4.406833
v -11.219826 8.144907 5.540618
v -9.747768 8.140455 5.539023
v -12.377529 9.516503 4.078836
v -11.541542 9.532451 5.865327
v -9.434766 9.536081 5.865145
v -8.610115 9.522324 4.261924
v -12.206367 10.919271 4.078727
v -11.367346 10.596601 4.943421
v -10.484293 10.589561 5.887906
v -9.678922 10.598348 4.943321
v -8.773045 10.928498 4.080618
v -11.127694 11.836584 4.083083
v -10.486460 12.235121 4.302551
v -9.893216 11.827914 4.122717
v -9.656683 11.105795 4.341917
v -10.482953 11.290519 5.357706
v -11.357211 11.123963 4.341320
v -10.486249 12.076837 4.449245
v -8.811474 11.006940 4.096604
v -9.779009 10.794385 4.583234
v -10.483607 10.754292 5.792445
v -11.260669 10.794944 4.584674
v -12.169624 11.010459 4.090285
v -10.484528 11.950929 4.593620
v -10.202229 12.200054 4.226701
v -10.202039 12.040468 4.370077
v -10.195530 11.909156 4.488078
v -10.185628 11.239275 5.202298
v -10.187155 10.729471 5.606720
v -10.197999 10.612283 5.720610
v -10.366324 6.799590 4.477601
v -10.721224 12.208175 4.242552
v -10.722717 12.049585 4.386424
v -10.729889 11.918322 4.510714
v -10.743498 11.255300 5.255595
v -10.747853 10.733596 5.647101
v -10.738093 10.617054 5.756459
v -10.571770 6.802845 4.480313
v -11.322101 10.891593 4.489344
v -10.761641 11.002426 5.428107
v -10.170545 10.977002 5.394595
v -9.714141 10.854690 4.507393
v -10.915623 11.209710 4.951274
v -10.977802 10.948401 5.210503
v -10.980154 10.716928 5.223327
v -10.020992 11.178210 4.959086
v -9.959134 10.906704 5.093938
v -9.937631 10.730146 5.141022
v -11.270422 9.522024 5.907089
v -10.710237 10.154258 5.839352
v -10.485195 10.132953 5.917964
v -10.224468 10.157763 5.817213
v -9.721091 9.525871 5.905622
v -10.020167 8.132019 5.561153
v -10.347304 7.673743 5.167014
v -10.486613 7.643966 5.140272
v -10.591139 7.668065 5.161809
v -10.966314 8.133606 5.562491
v -11.243202 9.759839 5.888662
v -11.111890 9.980528 5.853025
v -10.926868 10.116233 5.838907
v -9.993271 10.088021 5.823920
v -9.824039 9.950407 5.843019
v -9.707716 9.742832 5.884201
v -9.863693 8.791216 5.753971
v -10.122909 7.732568 5.219831
v -10.807944 7.758405 5.242828
v -11.139514 8.817191 5.761144
v -11.038927 9.494377 5.924030
v -10.671134 9.940879 5.880940
v -10.486058 9.944817 5.927065
v -10.261642 9.932701 5.871139
v -9.935811 9.497504 5.923632
v -10.151909 8.131666 5.560788
v -10.345443 7.825653 5.303701
v -10.486605 7.795914 5.276994
v -10.597588 7.837316 5.314174
v -10.791113 8.131672 5.560790
v -10.979476 9.721512 5.914592
v -10.817715 9.897534 5.890067
v -10.117185 9.876966 5.887159
v -10.025082 8.837804 5.766838
v -10.221045 7.866782 5.340629
v -10.912398 8.743552 5.740818
v -10.016811 9.725989 5.909828
vt 0.485659 0.000599
vt 0.501325 0.000576
vt 0.501326 0.155344
vt 0.482096 0.159778
vt 0.523456 0.000000
vt 0.613686 0.018634
vt 0.637255 0.246685
vt 0.587141 0.245133
vt 0.568239 0.171644
vt 0.526955 0.160822
vt 0.387345 0.019616
vt 0.366434 0.247504
vt 0.307246 0.502777
vt 0.153446 0.499843
vt 0.642163 0.501567
vt 0.615927 0.366409
vt 0.694839 0.503445
vt 0.846554 0.500914
vt 0.339293 0.698554
vt 0.184935 0.757917
vt 0.460185 0.617174
vt 0.501587 0.613254
vt 0.501753 0.697259
vt 0.455060 0.702317
vt 0.549554 0.617819
vt 0.592089 0.604988
vt 0.623223 0.579671
vt 0.644624 0.541482
vt 0.649921 0.698875
vt 0.554424 0.701439
vt 0.816579 0.759614
vt 0.358919 0.735044
vt 0.191695 0.774693
vt 0.501879 0.727565
vt 0.453265 0.723758
vt 0.631507 0.734941
vt 0.602325 0.723123
vt 0.556419 0.722999
vt 0.809509 0.774046
vt 0.554878 0.940031
vt 0.610496 0.925084
vt 0.553681 0.964189
vt 0.456569 0.941717
vt 0.501710 0.947716
vt 0.501393 0.970880
vt 0.457889 0.965866
vt 0.553646 0.993549
vt 0.501354 1.000000
vt 0.458164 0.995043
vt 0.654012 0.792232
vt 0.643442 0.746036
vt 0.586988 0.805555
vt 0.598369 0.755605
vt 0.501999 0.826217
vt 0.454066 0.819738
vt 0.450728 0.773215
vt 0.347618 0.752825
vt 0.341158 0.795575
vt 0.383384 0.926679
vt 0.556700 0.816790
vt 0.559475 0.768538
vt 0.422399 0.811350
vt 0.410960 0.763276
vt 0.410527 0.720691
vt 0.357125 0.500859
vt 0.362133 0.544611
vt 0.386291 0.585212
vt 0.420330 0.610178
vt 0.413073 0.245425
vt 0.381209 0.371187
vt 0.442209 0.176398
vt 0.399714 0.495772
vt 0.410652 0.537560
vt 0.440412 0.569943
vt 0.467379 0.577918
vt 0.501428 0.578642
vt 0.542715 0.576413
vt 0.602660 0.496348
vt 0.586236 0.374980
vt 0.562903 0.245068
vt 0.550184 0.196336
vt 0.527298 0.188770
vt 0.501328 0.183299
vt 0.480910 0.190915
vt 0.445306 0.245069
vt 0.422992 0.357640
vt 0.587758 0.538383
vt 0.569291 0.566159
vn -0.014467 -0.627141 0.778772
vn -0.001124 -0.618063 0.786128
vn -0.000883 -0.624852 0.780743
vn -0.015168 -0.630322 0.776186
vn 0.115555 -0.650791 0.750412
vn 0.712013 -0.472629 0.519287
vn 0.765664 -0.408889 0.496557
vn 0.122801 -0.510566 0.851024
vn 0.124458 -0.656095 0.744345
vn 0.111436 -0.653279 0.748871
vn -0.698044 -0.463627 0.545696
vn -0.776303 -0.390142 0.495119
vn -0.841864 -0.063749 0.535911
vn -0.880547 -0.051496 0.471153
vn 0.374860 0.163089 0.912624
vn 0.120030 -0.260027 0.958112
vn 0.832471 -0.064257 0.550330
vn 0.866116 -0.031747 0.498834
vn -0.734072 0.400172 0.548635
vn -0.747887 0.368344 0.552257
vn -0.487457 0.403196 0.774480
vn 0.049093 0.115088 0.992141
vn 0.054326 0.224427 0.972975
vn -0.566064 0.500092 0.655346
vn 0.510559 0.413858 0.753692
vn 0.516404 0.465291 0.718910
vn 0.516404 0.465291 0.718910
vn 0.516404 0.465290 0.718910
vn 0.698914 0.438716 0.564843
vn 0.591668 0.490951 0.639450
vn 0.694014 0.428519 0.578546
vn -0.517366 0.557893 0.648913
vn -0.263796 0.645336 0.716906
vn 0.064002 0.608658 0.790847
vn -0.529060 0.648531 0.547269
vn 0.447992 0.618625 0.645450
vn 0.758266 0.515338 0.399324
vn 0.592660 0.586261 0.552315
vn 0.234924 0.655997 0.717272
vn 0.684799 0.520632 0.509895
vn 0.676080 0.452898 0.581206
vn 0.485320 0.603384 0.632765
vn -0.662296 0.529361 0.530227
vn 0.061186 0.744387 0.664939
vn 0.035029 0.699790 0.713490
vn -0.488866 0.608300 0.625284
vn 0.483997 0.588437 0.647680
vn 0.034503 0.674847 0.737150
vn -0.497421 0.586873 0.638868
vn 0.573415 0.439489 0.691408
vn 0.478005 0.388926 0.787558
vn 0.795503 0.410152 0.446037
vn 0.866266 0.255731 0.429168
vn 0.066474 0.684363 0.726105
vn -0.564758 0.582371 0.584715
vn -0.564065 0.492340 0.662896
vn -0.490589 0.436751 0.754036
vn -0.567247 0.467605 0.677921
vn -0.654044 0.471861 0.591248
vn 0.601184 0.559947 0.570120
vn 0.600275 0.490794 0.631499
vn -0.754164 0.452537 0.475865
vn -0.834128 0.288693 0.469985
vn -0.703502 0.565609 0.430315
vn -0.395070 0.190873 0.898603
vn -0.503027 0.450667 0.737471
vn -0.503027 0.450667 0.737471
vn -0.503027 0.450667 0.737471
vn -0.049771 -0.498002 0.865746
vn -0.114243 -0.261973 0.958290
vn -0.016705 -0.631674 0.775055
vn -0.010679 -0.156147 0.987676
vn -0.016979 0.100177 0.994825
vn -0.016979 0.100177 0.994825
vn -0.024656 0.090488 0.995592
vn 0.008729 0.075085 0.997139
vn 0.036793 0.099814 0.994326
vn 0.014181 -0.152123 0.988260
vn 0.005894 -0.253477 0.967323
vn 0.004612 -0.315617 0.948876
vn 0.003276 -0.647310 0.762220
vn 0.001991 -0.647195 0.762322
vn -0.001124 -0.647322 0.762216
vn -0.003290 -0.647326 0.762206
vn -0.003847 -0.316166 0.948696
vn -0.004775 -0.253525 0.967317
vn 0.024369 0.109879 0.993646
vn 0.024369 0.109879 0.993646
s 1
g mascaraShape3Envelope mascara3
usemtl surfaceSamplingEnvelopeShaderSG
f 41/1/1 2/2/2 59/3/3 60/4/4
f 34/5/5 3/6/6 5/7/7 57/8/8 69/9/9 58/10/10
f 1/11/11 4/12/12 7/13/13 6/14/14
f 56/15/15 68/16/16 57/8/8 5/7/7 8/17/17
f 5/7/7 3/6/6 9/18/18 8/17/17
f 6/14/14 7/13/13 11/19/19 10/20/20
f 53/21/21 54/22/22 12/23/23 40/24/24
f 55/25/25 65/26/26 66/27/27 67/28/28 56/15/15 8/17/17 13/29/29 33/30/30
f 8/17/17 9/18/18 14/31/31 13/29/29
f 10/20/20 11/19/19 25/32/32 26/33/33
f 40/24/24 12/23/23 24/34/34 39/35/35
f 33/30/30 13/29/29 23/36/36 51/37/37 32/38/38
f 13/29/29 14/31/31 22/39/39 23/36/36
f 30/40/40 17/41/41 29/42/42
f 37/43/43 27/44/44 21/45/45 36/46/46
f 29/42/42 17/41/41 28/47/47
f 36/46/46 21/45/45 16/48/48 35/49/49
f 23/36/36 22/39/39 17/41/41 18/50/50 45/51/51
f 49/52/52 50/53/53 45/51/51 18/50/50
f 39/35/35 24/34/34 19/54/54 38/55/55 43/56/56
f 26/33/33 25/32/32 42/57/57 20/58/58 15/59/59
f 38/55/55 19/54/54 27/44/44 37/43/43
f 31/60/60 49/52/52 18/50/50 17/41/41 30/40/40
f 21/45/45 29/42/42 28/47/47 16/48/48
f 27/44/44 30/40/40 29/42/42 21/45/45
f 19/54/54 31/60/60 30/40/40 27/44/44
f 24/34/34 32/38/38 44/61/61 31/60/60 19/54/54
f 12/23/23 33/30/30 32/38/38 24/34/34
f 54/22/22 55/25/25 33/30/30 12/23/23
f 2/2/2 34/5/5 58/10/10 59/3/3
f 15/59/59 36/46/46 35/49/49
f 15/59/59 37/43/43 36/46/46
f 20/58/58 46/62/62 38/55/55 37/43/43 15/59/59
f 46/62/62 47/63/63 43/56/56 38/55/55
f 11/19/19 40/24/24 39/35/35 48/64/64 25/32/32
f 7/13/13 52/65/65 62/66/66 63/67/67 64/68/68 53/21/21 40/24/24 11/19/19
f 4/12/12 61/69/69 71/70/70 52/65/65 7/13/13
f 1/11/11 41/1/1 60/4/4 70/71/71 61/69/69 4/12/12
f 47/63/63 48/64/64 39/35/35 43/56/56
f 50/53/53 51/37/37 23/36/36 45/51/51
f 42/57/57 47/63/63 46/62/62 20/58/58
f 25/32/32 48/64/64 47/63/63 42/57/57
f 44/61/61 50/53/53 49/52/52 31/60/60
f 32/38/38 51/37/37 50/53/53 44/61/61
f 53/21/21 64/68/68 63/67/67 62/66/66 52/65/65 72/72/72 82/73/73 83/74/74 73/75/75
f 73/75/75 74/76/76 54/22/22 53/21/21
f 74/76/76 75/77/77 55/25/25 54/22/22
f 76/78/78 85/79/79 77/80/80 57/8/8 68/16/16 56/15/15
f 58/10/10 69/9/9 57/8/8 77/80/80 86/81/81 78/82/82
f 59/3/3 58/10/10 78/82/82 79/83/83
f 60/4/4 59/3/3 79/83/83 80/84/84
f 61/69/69 70/71/71 60/4/4 80/84/84 81/85/85
f 52/65/65 71/70/70 61/69/69 81/85/85 87/86/86 72/72/72
f 72/72/72 76/78/78 88/87/87 84/88/88 75/77/77 74/76/76 73/75/75 83/74/74 82/73/73
f 76/78/78 56/15/15 67/28/28 66/27/27 65/26/26 55/25/25 75/77/77 84/88/88 88/87/87
f 81/85/85 77/80/80 85/79/79 76/78/78 72/72/72 87/86/86
f 80/84/84 79/83/83 78/82/82 86/81/81 77/80/80 81/85/85
